# xmcd CD database file generated by Grip 3.3.1
# 
# Track frame offsets:
#       150
#       12482
#       23443
#       33431
#       43497
#       54141
#       65757
#       75663
#       84237
#       95635
#       105855
#       115537
#       124331
#       134575
#       146485
# 
# Disc length: 2108 seconds
# 
# Revision: 4
# Processed by: cddbd v1.5.2PL0 Copyright (c) Steve Scherf et al.
# Submitted via: Grip 3.3.1
# 
DISCID=c0083a0f
DTITLE=Johnny Cash - The Ultimate Collection [CD1]
DYEAR=2008
DGENRE=Country
TTITLE0=I walk the line
TTITLE1=Cry! cry! cry!
TTITLE2=Hey Porter!
TTITLE3=Get rhythm
TTITLE4=Train of love
TTITLE5=So doggone lonesome
TTITLE6=Ballad of a teenage queen
TTITLE7=I forgot to remember to forget
TTITLE8=Big river
TTITLE9=The ways of a woman in love
TTITLE10=It's just about time
TTITLE11=Katy too
TTITLE12=Straight A's in love
TTITLE13=Home of the blues
TTITLE14=Port of lonely hearts
EXTD=
EXTT0=
EXTT1=
EXTT2=
EXTT3=
EXTT4=
EXTT5=
EXTT6=
EXTT7=
EXTT8=
EXTT9=
EXTT10=
EXTT11=
EXTT12=
EXTT13=
EXTT14=
PLAYORDER=
